<svg width="226" height="26" viewBox="0 0 226 26" fill="none" xmlns="http://www.w3.org/2000/svg">
<g clip-path="url(#clip0_25_382)">
<path d="M18.57 16.3809C18.5176 16.2404 13.8751 7.00221 13.8053 6.86171C13.561 6.26456 13.1246 5.75523 12.5487 5.40397C11.1001 4.56094 9.25003 5.0527 8.41228 6.51044C7.83633 7.51154 7.87123 8.68827 8.42973 9.61911C8.48209 9.74206 12.9152 18.5939 13.0025 18.7344C13.0548 18.8749 13.1246 18.9978 13.1944 19.1383C13.4388 19.7355 13.8751 20.2448 14.4511 20.5961C15.8997 21.4391 17.7497 20.9649 18.5875 19.5071C19.1809 18.5061 19.1285 17.3118 18.57 16.3809Z" fill="#0EF387"/>
<path d="M13.212 10.1284C13.7182 9.58397 14.0323 8.84632 14.0323 8.03842C14.0323 6.36992 12.6884 5 11.0129 5C9.98319 5 9.07563 5.50933 8.53458 6.29967C8.42986 6.40505 0.907563 15.7486 0.820297 15.8716C0.314156 16.416 0 17.1537 0 17.9616C0 19.6476 1.36134 21 3.01939 21C4.04913 21 4.95669 20.4907 5.49774 19.7003C5.60246 19.5774 13.1422 10.2514 13.212 10.1284Z" fill="#FAFAFA"/>
<path d="M26.1794 10.1284C26.6856 9.58397 26.9997 8.84632 26.9997 8.03842C26.9997 6.35236 25.6384 5 23.9803 5C22.9506 5 22.043 5.50933 21.502 6.29967C21.3973 6.40505 13.8575 15.7486 13.7702 15.8716C13.2641 16.416 12.95 17.1537 12.95 17.9616C12.95 19.6476 14.3113 21 15.9693 21C16.9991 21 17.9066 20.4907 18.4477 19.7003C18.5699 19.5774 26.0922 10.2514 26.1794 10.1284Z" fill="#FAFAFA"/>
</g>
<path d="M36.32 5.5H47.44V8.5H39.74V11.04H47.02V14.06H39.74V16.98H47.44V20H36.32V5.5ZM53.0817 12.62L47.8817 5.5H51.9017L55.1017 9.88L58.3217 5.5H62.2817L57.0617 12.56L62.5217 20H58.5017L55.0417 15.3L51.5817 20H47.6417L53.0817 12.62ZM68.7953 5.5C69.7953 5.5 70.6686 5.57333 71.4153 5.72C72.1753 5.85333 72.862 6.09333 73.4753 6.44C74.102 6.77333 74.5753 7.26 74.8953 7.9C75.2153 8.52667 75.3753 9.3 75.3753 10.22C75.3753 11.14 75.2153 11.92 74.8953 12.56C74.5753 13.2 74.102 13.6933 73.4753 14.04C72.862 14.3867 72.1753 14.6333 71.4153 14.78C70.6686 14.9133 69.7953 14.98 68.7953 14.98H66.6353V20H63.2153V5.5H68.7953ZM66.6353 8.38V12.1H68.8953C69.802 12.1 70.502 11.9667 70.9953 11.7C71.502 11.4333 71.7553 10.94 71.7553 10.22C71.7553 9.51333 71.502 9.03333 70.9953 8.78C70.502 8.51333 69.802 8.38 68.8953 8.38H66.6353ZM76.3505 5.5H87.4705V8.5H79.7705V11.04H87.0505V14.06H79.7705V16.98H87.4705V20H76.3505V5.5ZM98.3322 20L92.5122 10V20H89.2122V5.5H93.3722L99.1922 15.5V5.5H102.492V20H98.3322ZM109.791 8C109.111 8 108.557 8.12667 108.131 8.38C107.704 8.62 107.491 8.96 107.491 9.4C107.491 9.74667 107.637 10.0533 107.931 10.32C108.237 10.5733 108.651 10.7533 109.171 10.86L111.151 11.26C111.751 11.38 112.244 11.4933 112.631 11.6C113.017 11.6933 113.477 11.8533 114.011 12.08C114.544 12.3067 114.964 12.56 115.271 12.84C115.591 13.1067 115.864 13.4733 116.091 13.94C116.331 14.3933 116.451 14.9133 116.451 15.5C116.451 16.94 115.837 18.0933 114.611 18.96C113.397 19.8267 111.984 20.26 110.371 20.26C108.517 20.26 107.004 19.82 105.831 18.94C104.671 18.06 103.957 16.84 103.691 15.28H107.091C107.464 16.76 108.584 17.5 110.451 17.5C111.131 17.5 111.711 17.3733 112.191 17.12C112.684 16.8667 112.931 16.4667 112.931 15.92C112.931 15.48 112.697 15.1267 112.231 14.86C111.777 14.5933 111.111 14.3667 110.231 14.18L108.471 13.82C105.471 13.18 103.971 11.7733 103.971 9.6C103.971 8.66667 104.277 7.86 104.891 7.18C105.517 6.5 106.271 6.01333 107.151 5.72C108.044 5.41333 108.991 5.26 109.991 5.26C111.537 5.26 112.871 5.62667 113.991 6.36C115.111 7.08 115.791 8.19333 116.031 9.7H112.651C112.477 9.16667 112.137 8.75333 111.631 8.46C111.137 8.15333 110.524 8 109.791 8ZM117.768 5.5H128.888V8.5H121.188V11.04H128.468V14.06H121.188V16.98H128.888V20H117.768V5.5ZM134.049 8.5H129.409V5.5H142.149V8.5H137.489V20H134.049V8.5ZM148.919 14.54H146.599V20H143.179V5.5H148.759C149.559 5.5 150.272 5.54 150.899 5.62C151.525 5.7 152.119 5.84 152.679 6.04C153.252 6.24 153.725 6.50667 154.099 6.84C154.485 7.17333 154.785 7.60667 154.999 8.14C155.225 8.66 155.339 9.27333 155.339 9.98C155.339 11.9133 154.392 13.2467 152.499 13.98L156.079 20H152.059L148.919 14.54ZM146.599 8.38V11.66H148.859C149.779 11.66 150.485 11.5467 150.979 11.32C151.472 11.08 151.719 10.6467 151.719 10.02C151.719 9.39333 151.465 8.96667 150.959 8.74C150.465 8.5 149.765 8.38 148.859 8.38H146.599ZM161.135 5.5H164.895L170.375 20H166.655L165.775 17.42H160.175L159.315 20H155.675L161.135 5.5ZM161.115 14.64H164.855L162.995 9.12L161.115 14.64ZM183.92 14.6C183.654 16.2933 182.894 17.66 181.64 18.7C180.387 19.74 178.847 20.26 177.02 20.26C174.767 20.26 172.994 19.5867 171.7 18.24C170.407 16.8933 169.76 15.06 169.76 12.74C169.76 10.4467 170.42 8.62667 171.74 7.28C173.074 5.93333 174.867 5.26 177.12 5.26C178.907 5.26 180.407 5.78667 181.62 6.84C182.834 7.88 183.567 9.24 183.82 10.92H180.46C180.274 9.97333 179.867 9.26667 179.24 8.8C178.614 8.32 177.867 8.08 177 8.08C175.947 8.08 175.08 8.5 174.4 9.34C173.72 10.1667 173.38 11.3 173.38 12.74C173.38 14.22 173.72 15.3733 174.4 16.2C175.08 17.0267 175.96 17.44 177.04 17.44C177.894 17.44 178.647 17.22 179.3 16.78C179.954 16.34 180.374 15.6133 180.56 14.6H183.92ZM188.66 11.24L193.92 5.5H198.1L192.74 11.28L198.38 20H194.26L190.34 13.88L188.66 15.72V20H185.24V5.5H188.66V11.24ZM199.098 5.5H210.218V8.5H202.518V11.04H209.798V14.06H202.518V16.98H210.218V20H199.098V5.5ZM217.7 14.54H215.38V20H211.96V5.5H217.54C218.34 5.5 219.053 5.54 219.68 5.62C220.307 5.7 220.9 5.84 221.46 6.04C222.033 6.24 222.507 6.50667 222.88 6.84C223.267 7.17333 223.567 7.60667 223.78 8.14C224.007 8.66 224.12 9.27333 224.12 9.98C224.12 11.9133 223.173 13.2467 221.28 13.98L224.86 20H220.84L217.7 14.54ZM215.38 8.38V11.66H217.64C218.56 11.66 219.267 11.5467 219.76 11.32C220.253 11.08 220.5 10.6467 220.5 10.02C220.5 9.39333 220.247 8.96667 219.74 8.74C219.247 8.5 218.547 8.38 217.64 8.38H215.38Z" fill="#FAFAFA"/>
<defs>
<clipPath id="clip0_25_382">
<rect width="27" height="16" fill="white" transform="translate(0 5)"/>
</clipPath>
</defs>
</svg>
